REM MD5 badb1b59efe1489e559b9197c2656221
FILE "Taikyoku Igo - Heisei Kiin (Japan).bin" BINARY
  TRACK 01 MODE2/2352
    INDEX 01 00:00:00
  TRACK 02 AUDIO
    INDEX 00 33:04:03
    INDEX 01 33:06:03
  TRACK 03 AUDIO
    INDEX 00 33:11:13
    INDEX 01 33:13:13
  TRACK 04 AUDIO
    INDEX 00 33:18:69
    INDEX 01 33:20:69
  TRACK 05 AUDIO
    INDEX 00 33:32:44
    INDEX 01 33:34:44
  TRACK 06 AUDIO
    INDEX 00 33:48:16
    INDEX 01 33:50:16
  TRACK 07 AUDIO
    INDEX 00 33:54:64
    INDEX 01 33:56:64
  TRACK 08 AUDIO
    INDEX 00 34:02:06
    INDEX 01 34:04:06
  TRACK 09 AUDIO
    INDEX 00 34:08:60
    INDEX 01 34:10:60
  TRACK 10 AUDIO
    INDEX 00 34:16:68
    INDEX 01 34:18:68
  TRACK 11 AUDIO
    INDEX 00 34:24:72
    INDEX 01 34:26:72
  TRACK 12 AUDIO
    INDEX 00 34:33:15
    INDEX 01 34:35:15
  TRACK 13 AUDIO
    INDEX 00 34:39:20
    INDEX 01 34:41:20
  TRACK 14 AUDIO
    INDEX 00 34:47:07
    INDEX 01 34:49:07
  TRACK 15 AUDIO
    INDEX 00 34:54:29
    INDEX 01 34:56:29
  TRACK 16 AUDIO
    INDEX 00 35:00:73
    INDEX 01 35:02:73
  TRACK 17 AUDIO
    INDEX 00 35:07:41
    INDEX 01 35:09:41
  TRACK 18 AUDIO
    INDEX 00 35:13:60
    INDEX 01 35:15:60
  TRACK 19 AUDIO
    INDEX 00 35:23:16
    INDEX 01 35:25:16
  TRACK 20 AUDIO
    INDEX 00 35:29:33
    INDEX 01 35:31:33
  TRACK 21 AUDIO
    INDEX 00 35:38:55
    INDEX 01 35:40:55
  TRACK 22 AUDIO
    INDEX 00 35:48:09
    INDEX 01 35:50:09
  TRACK 23 AUDIO
    INDEX 00 35:57:61
    INDEX 01 35:59:61
  TRACK 24 AUDIO
    INDEX 00 36:04:17
    INDEX 01 36:06:17
  TRACK 25 AUDIO
    INDEX 00 36:10:60
    INDEX 01 36:12:60
  TRACK 26 AUDIO
    INDEX 00 36:19:07
    INDEX 01 36:21:07
  TRACK 27 AUDIO
    INDEX 00 37:38:58
    INDEX 01 37:40:58
  TRACK 28 AUDIO
    INDEX 00 37:45:54
    INDEX 01 37:47:54
  TRACK 29 AUDIO
    INDEX 00 37:52:05
    INDEX 01 37:54:05
  TRACK 30 AUDIO
    INDEX 00 38:00:16
    INDEX 01 38:02:16
  TRACK 31 AUDIO
    INDEX 00 38:09:47
    INDEX 01 38:11:47
  TRACK 32 AUDIO
    INDEX 00 38:16:35
    INDEX 01 38:18:35
  TRACK 33 AUDIO
    INDEX 00 38:22:61
    INDEX 01 38:24:61
  TRACK 34 AUDIO
    INDEX 00 38:32:23
    INDEX 01 38:34:23
  TRACK 35 AUDIO
    INDEX 00 38:39:32
    INDEX 01 38:41:32
  TRACK 36 AUDIO
    INDEX 00 38:46:37
    INDEX 01 38:48:37
  TRACK 37 AUDIO
    INDEX 00 38:55:52
    INDEX 01 38:57:52
  TRACK 38 AUDIO
    INDEX 00 39:02:08
    INDEX 01 39:04:08
  TRACK 39 AUDIO
    INDEX 00 39:08:35
    INDEX 01 39:10:35
  TRACK 40 AUDIO
    INDEX 00 39:17:71
    INDEX 01 39:19:71
  TRACK 41 AUDIO
    INDEX 00 39:27:26
    INDEX 01 39:29:26
  TRACK 42 AUDIO
    INDEX 00 39:33:47
    INDEX 01 39:35:47
  TRACK 43 AUDIO
    INDEX 00 39:43:04
    INDEX 01 39:45:04
  TRACK 44 AUDIO
    INDEX 00 39:52:66
    INDEX 01 39:54:66
  TRACK 45 AUDIO
    INDEX 00 40:03:40
    INDEX 01 40:05:40
  TRACK 46 AUDIO
    INDEX 00 40:19:72
    INDEX 01 40:21:72
  TRACK 47 AUDIO
    INDEX 00 40:26:24
    INDEX 01 40:28:24
  TRACK 48 AUDIO
    INDEX 00 40:36:06
    INDEX 01 40:38:06
REM LEADOUT 43:59:59
